<svg version="1.1" xmlns="http://www.w3.org/2000/svg" xmlns:xlink="http://www.w3.org/1999/xlink" x="0px" y="0px" width="450" height="800" viewBox="90 50 90 160"><g id="Layer 1"><path d="M91.75 97.058c0 -23.462 19.021 -42.483 42.484 -42.483s42.483 19.021 42.483 42.483c0 17.929 -21.201 42.234 -21.852 50.261v21.125a3.42 3.42 0 0 1 -3.42 3.419h-34.423a3.42 3.42 0 0 1 -3.419 -3.419l-0.001 -21.125c-0.651 -8.027 -21.852 -32.332 -21.852 -50.261z" fill-opacity="0" stroke="#1A1919" stroke-width="1"/><path d="M117.022 171.863h34.852v7.001h-34.852z" fill-opacity="0" stroke="#1A1919" stroke-width="1"/><g><path d="M123.317 201.328h22.155l-6.518 5.399h-9.119z" fill="#1A1919"/><path d="M123.317 201.328h22.155l-6.518 5.399h-9.119z" fill-opacity="0" stroke="#1A1919" stroke-width="1"/></g><path d="M137.015 206.727v1.687h-5.135v-1.687z" fill-opacity="0" stroke="#1A1919" stroke-width="1"/><path d="M150.691 182.605a1.521 1.521 0 0 1 0 2.965v1.75a1.522 1.522 0 0 1 0 2.965v1.751a1.52 1.52 0 0 1 0 2.965v1.72a1.559 1.559 0 0 1 -0.376 3.071l-3.643 1.536h-24.449l-4.019 -1.708v-1.785a1.522 1.522 0 0 1 0 -2.965v-1.75a1.522 1.522 0 0 1 0 -2.965v-1.75a1.522 1.522 0 0 1 0 -2.966v-1.75a1.52 1.52 0 0 1 0 -2.965v-1.86h33.67v0.508c0 0.724 -0.506 1.329 -1.183 1.483z" fill-opacity="0" stroke="#1A1919" stroke-width="1"/><g><path d="m150.691 180.855 -32.486 2.834 32.486 -1.084z" fill="#1A1919"/><path d="m150.691 180.855 -32.486 2.834 32.486 -1.084z" fill-opacity="0" stroke="#1A1919" stroke-width="1"/></g><g><path d="m150.691 185.57 -32.486 2.835 32.486 -1.085z" fill="#1A1919"/><path d="m150.691 185.57 -32.486 2.835 32.486 -1.085z" fill-opacity="0" stroke="#1A1919" stroke-width="1"/></g><g><path d="m150.691 190.286 -32.486 2.834 32.486 -1.084z" fill="#1A1919"/><path d="m150.691 190.286 -32.486 2.834 32.486 -1.084z" fill-opacity="0" stroke="#1A1919" stroke-width="1"/></g><g><path d="m150.691 195.001 -32.486 2.834 32.486 -1.084z" fill="#1A1919"/><path d="m150.691 195.001 -32.486 2.834 32.486 -1.084z" fill-opacity="0" stroke="#1A1919" stroke-width="1"/></g><g><path d="M117.022 171.863h2.395v7.001h-2.395z" fill="#1A1919"/><path d="M117.022 171.863h2.395v7.001h-2.395z" fill-opacity="0" stroke="#1A1919" stroke-width="1"/></g><g><path d="M141.781 171.863h2.396v7.001h-2.396z" fill="#1A1919"/><path d="M141.781 171.863h2.396v7.001h-2.396z" fill-opacity="0" stroke="#1A1919" stroke-width="1"/></g></g><defs/></svg>